HIERARCHY
ROOT Hips
{
	OFFSET -0.179506 -22.333345 2.821913
	CHANNELS 6 Xposition Yposition Zposition Zrotation Yrotation Xrotation 
	JOINT LeftUpLeg
	{
		OFFSET 6.951974 -9.140623 -0.681533
		CHANNELS 3 Zrotation Yrotation Xrotation
		JOINT LeftLeg
		{
			OFFSET 3.427654 -37.519855 -0.449580
			CHANNELS 3 Zrotation Yrotation Xrotation
			JOINT LeftFoot
			{
				OFFSET -1.359570 -39.796059 -4.369333
				CHANNELS 3 Zrotation Yrotation Xrotation
				JOINT LeftToe
				{
					OFFSET 2.635814 -5.579078 11.928840
					CHANNELS 3 Zrotation Yrotation Xrotation
					End Site
					{
						OFFSET 0.000000 0.000000 0.000000
					}
				}
			}
		}
	}
	JOINT RightUpLeg
	{
		OFFSET -6.767048 -9.052170 -0.431982
		CHANNELS 3 Zrotation Yrotation Xrotation
		JOINT RightLeg
		{
			OFFSET -3.829005 -38.256897 -0.885003
			CHANNELS 3 Zrotation Yrotation Xrotation
			JOINT RightFoot
			{
				OFFSET 1.577377 -39.841461 -4.231180
				CHANNELS 3 Zrotation Yrotation Xrotation
				JOINT RightToe
				{
					OFFSET -2.537174 -4.814398 12.334795
					CHANNELS 3 Zrotation Yrotation Xrotation
					End Site
					{
						OFFSET 0.000000 0.000000 0.000000
					}
				}
			}
		}
	}
	JOINT Spine
	{
		OFFSET -0.253288 10.896323 -2.669631
		CHANNELS 3 Zrotation Yrotation Xrotation
		JOINT Spine1
		{
			OFFSET 0.548704 13.518043 0.109247
			CHANNELS 3 Zrotation Yrotation Xrotation
			JOINT Spine2
			{
				OFFSET 0.145701 5.292222 2.542457
				CHANNELS 3 Zrotation Yrotation Xrotation
				JOINT Neck
				{
					OFFSET -0.277840 21.387037 -4.285703
					CHANNELS 3 Zrotation Yrotation Xrotation
					JOINT Head
					{
						OFFSET 0.515184 6.496960 5.134897
						CHANNELS 3 Zrotation Yrotation Xrotation
						End Site
						{
							OFFSET 0.000000 0.000000 0.000000
						}
					}
				}
				JOINT LeftShoulder
				{
					OFFSET 7.884473 12.174932 -3.408961
					CHANNELS 3 Zrotation Yrotation Xrotation
					JOINT LeftArm
					{
						OFFSET 9.097692 3.046888 -0.886815
						CHANNELS 3 Zrotation Yrotation Xrotation
						JOINT LeftForeArm
						{
							OFFSET 25.961220 -1.277207 -2.745643
							CHANNELS 3 Zrotation Yrotation Xrotation
							JOINT LeftHand
							{
								OFFSET 24.923361 0.898606 -0.117091
								CHANNELS 3 Zrotation Yrotation Xrotation
								End Site
								{
									OFFSET 0.000000 0.000000 0.000000
								}
							}
						}
					}
				}
				JOINT RightShoulder
				{
					OFFSET -8.175920 11.883285 -3.861528
					CHANNELS 3 Zrotation Yrotation Xrotation
					JOINT RightArm
					{
						OFFSET -9.601238 3.255117 -0.914307
						CHANNELS 3 Zrotation Yrotation Xrotation
						JOINT RightForeArm
						{
							OFFSET -25.374195 -1.332924 -2.140099
							CHANNELS 3 Zrotation Yrotation Xrotation
							JOINT RightHand
							{
								OFFSET -25.529810 0.777228 -0.555919
								CHANNELS 3 Zrotation Yrotation Xrotation
								End Site
								{
									OFFSET 0.000000 0.000000 0.000000
								}
							}
						}
					}
				}
			}
		}
	}
}
MOTION
Frames: 16
Frame Time: 0.033333
-34.329063 153.868729 89.470497 -86.194519 -5.217213 85.834647 19.351559 4.252897 -10.171613 -6.309264 -0.774627 18.846383 -4.912256 3.187476 -5.050167 nan nan nan -23.124743 -14.579233 -15.487448 1.361660 -19.292147 43.662239 2.651709 -1.275849 -35.757048 nan nan nan -4.709278 5.795979 3.763850 0.916326 -0.210361 13.892492 -0.351994 1.582870 -5.195679 4.908265 -5.428706 18.114318 11.039949 -16.513016 3.074822 -6.500322 -6.698265 -5.280804 -59.753059 -41.807374 25.573251 141.243095 -59.681108 -122.983751 3.734239 -19.038468 -15.556918 9.001862 14.340733 0.537742 62.214828 12.616686 18.327484 -166.960558 68.985308 -162.943781 15.060995 25.493968 -39.899093 
-34.208019 154.074661 89.194786 -85.691646 -5.132319 85.727052 19.422936 4.748236 -9.672868 -6.400216 -1.226832 17.576115 -4.683961 3.378138 -5.497044 nan nan nan -22.926976 -14.635677 -15.788744 1.090090 -19.202396 44.515025 2.640556 -1.635987 -36.238691 nan nan nan -4.684463 5.184224 3.976336 0.762896 -0.651580 13.696006 -0.511153 1.702849 -5.057534 5.066385 -5.399266 18.342757 11.197825 -15.981794 3.322444 -6.703369 -6.431333 -5.366862 -59.654604 -41.833077 25.515034 141.699642 -59.942348 -123.467176 3.313635 -19.015123 -15.568346 8.774812 13.356701 -0.024933 61.745804 12.121949 17.708685 -167.149993 68.180614 -163.237351 15.289022 25.802365 -40.259461 
-34.082993 154.242813 88.938896 -85.248852 -5.062302 85.654350 19.454245 5.128230 -9.309582 -6.533992 -1.788518 16.536673 -4.576672 3.799829 -6.185091 nan nan nan -22.752621 -14.623153 -16.208774 0.970973 -19.054916 45.311825 2.747812 -2.327184 -36.746206 nan nan nan -4.687653 4.540301 4.277891 0.574857 -1.153389 13.016493 -0.638556 1.923294 -4.611490 5.211409 -5.553868 18.578564 11.259176 -15.356849 3.712885 -6.975393 -6.456722 -5.373208 -59.278251 -41.579458 25.223865 142.511622 -60.255102 -124.123361 3.447864 -18.987064 -16.018416 8.489737 12.675863 -0.712273 61.107069 11.370621 16.876650 -166.661845 67.420394 -162.556035 15.368507 25.582600 -40.538401 
-33.944004 154.389923 88.720047 -84.930379 -4.999046 85.468340 19.488194 5.414533 -8.865239 -6.659026 -2.230807 15.690823 -4.433205 4.138771 -6.908888 nan nan nan -22.584419 -14.522555 -16.606118 0.858548 -18.856736 46.132552 2.846447 -3.085962 -37.256664 nan nan nan -4.715372 3.886066 4.572442 0.404074 -1.698383 12.431853 -0.745023 2.226278 -4.003411 5.411084 -5.601398 18.763015 11.231873 -14.856712 4.002041 -7.210427 -6.736904 -5.478837 -58.760721 -41.108218 24.807222 143.310160 -60.510639 -124.717138 3.792331 -19.209345 -16.399655 8.142855 12.397455 -1.501920 60.188345 10.488954 16.031494 -165.362483 66.590060 -161.022498 14.891387 25.393728 -40.606256 
-33.804802 154.520126 88.538765 -84.756959 -4.925267 85.124285 19.523593 5.586933 -8.262437 -6.646429 -2.644829 15.018122 -4.280655 4.386035 -7.671743 nan nan nan -22.422079 -14.312306 -16.886470 0.775885 -18.594317 46.985735 2.926048 -3.694578 -37.733480 nan nan nan -4.624903 3.250488 5.093901 0.217095 -2.116132 12.034870 -0.897918 2.270363 -3.597329 5.591135 -5.406266 18.931618 11.201405 -14.403780 4.150345 -7.276608 -6.742551 -5.869356 -58.685533 -40.550227 24.887349 143.749877 -60.604358 -125.095978 3.933390 -19.448272 -16.745353 7.576070 12.111763 -2.234958 59.365059 9.970803 15.511602 -163.911208 65.829481 -159.570648 14.376104 25.253425 -40.949316 
-33.659210 154.607941 88.377708 -84.663963 -4.869299 84.751087 19.532002 5.567268 -7.652698 -6.549366 -2.970916 14.485634 -4.109068 4.588594 -8.500862 nan nan nan -22.266255 -14.083519 -17.135112 0.579429 -18.341083 47.828513 2.997659 -4.037169 -38.171911 nan nan nan -4.438754 2.649719 5.631088 0.012217 -2.393036 11.689859 -1.053461 2.046599 -3.218388 5.551073 -5.168130 19.122789 11.268018 -13.805075 4.271834 -7.329304 -6.651992 -6.199512 -58.940252 -39.981364 25.250063 144.037543 -60.493719 -125.425479 3.892993 -19.561358 -16.789260 6.809431 11.762933 -2.650773 58.720051 10.091778 14.902308 -162.498742 65.228573 -158.312828 14.278989 25.101661 -41.267679 
-33.474117 154.652786 88.237617 -84.595861 -4.828155 84.452491 19.502053 5.440965 -7.178018 -6.418510 -3.107842 14.056584 -3.948913 4.661188 -9.245028 nan nan nan -22.099300 -13.860715 -17.417673 0.251683 -18.153510 48.589096 3.098993 -4.103980 -38.568298 nan nan nan -4.269206 2.086210 6.164556 -0.164470 -2.599019 11.274310 -1.152522 1.802686 -2.830143 5.372474 -5.103561 19.297715 11.336428 -13.108858 4.362217 -7.319810 -6.633966 -6.278864 -59.622584 -39.519957 25.766095 144.224427 -60.339673 -125.521686 3.858290 -19.726494 -16.428579 5.905464 11.259027 -2.981291 58.098855 10.524929 14.096507 -161.167051 64.801935 -156.915000 14.487563 25.299518 -40.912739 
-33.250977 154.666275 88.121933 -84.605890 -4.771697 84.303227 19.453270 5.333933 -6.903832 -6.238252 -3.252278 13.705263 -3.846914 4.666700 -9.915331 nan nan nan -21.865792 -13.693611 -17.814265 -0.042269 -17.962261 49.193223 3.184343 -4.159027 -38.910905 nan nan nan -4.126401 1.660156 6.782947 -0.290657 -2.748085 10.680800 -1.175913 1.559351 -2.502654 5.206131 -5.206900 19.385663 11.425720 -12.424581 4.391196 -7.275954 -6.617472 -6.269271 -60.414734 -39.077917 26.124809 144.739214 -60.228522 -125.409497 3.677306 -19.694958 -15.916230 5.048610 10.540284 -3.477934 57.316424 10.746383 13.300974 -160.171539 64.225105 -155.646649 14.549200 25.636085 -40.427233 
-33.030109 154.653305 88.023735 -84.685892 -4.683378 84.284104 19.402214 5.201614 -6.781257 -5.978479 -3.457507 13.419651 -3.769467 4.710303 -10.488804 nan nan nan -21.616169 -13.594252 -18.248740 -0.222302 -17.805449 49.591780 3.215345 -4.250910 -39.082147 nan nan nan -3.915388 1.356807 7.218887 -0.419134 -2.891886 10.138991 -1.170489 1.247447 -2.294336 4.968114 -5.349876 19.696584 11.520892 -11.695192 4.495761 -7.402993 -6.731077 -6.299398 -60.907056 -38.510925 26.265851 145.451048 -60.249378 -125.468345 3.648561 -19.609696 -15.741290 4.253541 9.895335 -3.971101 56.444029 10.830598 12.423017 -159.575489 63.574126 -155.015835 14.137066 25.566230 -40.227430 
-32.816689 154.617828 87.929787 -84.796469 -4.578665 84.254815 19.405849 5.020354 -6.639421 -5.738747 -3.640758 13.148670 -3.920158 4.796906 -10.846434 nan nan nan -21.413764 -13.514107 -18.533788 -0.335278 -17.725307 49.773612 3.081439 -4.343080 -39.122623 nan nan nan -3.685410 1.078955 7.532526 -0.521245 -3.007793 9.826297 -1.202998 1.009765 -2.200132 4.855802 -5.601450 19.915329 11.528606 -11.104355 4.769186 -7.606444 -6.939947 -6.316271 -61.493658 -38.198952 26.694699 145.661343 -60.452047 -125.319936 3.748478 -19.889096 -15.768907 3.407417 9.227730 -4.439744 55.652479 10.992507 11.539753 -159.076172 62.925187 -154.484296 13.524097 25.474383 -40.150326 
-32.597404 154.566971 87.820702 -84.901165 -4.421717 84.344161 19.521990 4.959299 -6.707273 -5.592805 -3.813068 13.016956 -4.315372 4.839858 -11.212750 nan nan nan -21.154054 -13.527056 -18.893592 -0.375830 -17.635715 49.877412 2.876675 -4.509574 -39.120657 nan nan nan -3.468659 0.784309 7.629753 -0.603176 -3.157724 9.408132 -1.220120 1.042507 -1.861176 4.858453 -5.979130 19.981103 11.531181 -10.610594 5.089064 -7.699252 -7.533472 -6.225361 -62.100533 -38.027520 27.183751 145.455912 -60.557469 -124.871255 3.576300 -20.148917 -15.855070 2.663014 8.589014 -5.035102 54.729508 10.904493 10.438818 -158.696925 62.144193 -153.832765 13.246951 25.481628 -40.112694 
-32.350571 154.485931 87.693680 -85.035891 -4.364190 84.421737 19.590605 4.860632 -6.779304 -5.635855 -3.921516 12.878306 -4.353864 5.024527 -11.681403 nan nan nan -21.096883 -13.516051 -19.283651 -0.403409 -17.671050 50.073099 2.623029 -4.631331 -39.107319 nan nan nan -3.373772 0.864251 6.699985 -0.565544 -3.141396 10.894752 -1.181628 0.661449 -1.779387 5.065693 -6.218132 19.580485 11.390417 -10.317626 5.055698 -7.859361 -8.718897 -6.261004 -62.383752 -38.136647 27.306866 144.904625 -60.420836 -124.525321 2.711493 -20.179990 -14.893168 1.834282 8.350762 -6.076791 53.707639 10.647518 9.188561 -157.781628 61.123189 -153.059623 13.520628 25.359063 -40.060184 
-32.159069 154.395798 87.653763 -85.198433 -4.404646 84.643272 19.461961 4.919559 -6.900899 -5.589220 -3.769689 12.622631 -4.212486 4.894028 -12.103760 nan nan nan -21.128879 -13.578568 -19.767849 -0.428642 -17.695007 50.171707 2.725385 -4.530177 -39.126404 nan nan nan -3.032419 0.584604 6.764197 -0.696869 -3.132330 10.516159 -1.247086 -0.121668 -1.649280 4.582300 -5.999851 19.924858 11.511136 -9.739527 5.029224 -8.408565 -8.355947 -6.536802 -63.008679 -37.802048 27.687276 145.438672 -60.758811 -125.304795 2.016513 -20.471178 -14.014916 1.039729 7.962908 -6.059725 53.421397 11.326792 8.537615 -157.211439 60.342321 -152.845570 13.513870 25.179162 -39.651958 
-31.957973 154.298874 87.630211 -85.407205 -4.435039 84.743809 19.343002 5.020701 -6.864356 -5.582398 -3.806350 12.293308 -3.963918 4.836122 -12.538226 nan nan nan -21.144784 -13.680768 -20.154375 -0.362302 -17.579785 50.221635 2.785121 -4.622491 -39.134590 nan nan nan -3.020788 0.353816 6.876597 -0.802594 -3.247345 10.400777 -1.260098 -0.081242 -1.713300 4.567652 -6.552048 19.994139 11.613846 -9.248779 5.532564 -8.654505 -8.729107 -6.400332 -63.718989 -37.805699 28.355327 145.288817 -61.188888 -124.931911 2.027476 -20.691712 -13.781689 0.753529 7.312010 -6.441875 52.644100 11.397150 7.812469 -156.724907 59.364432 -152.030056 13.018134 24.896518 -39.541513 
-31.767965 154.191193 87.651367 -85.704347 -4.435756 84.786045 19.275509 5.127769 -6.702241 -5.554582 -4.061218 11.914241 -3.938083 4.915184 -12.763243 nan nan nan -21.070551 -13.734178 -20.435442 -0.243604 -17.374498 50.109020 2.868580 -4.817995 -39.168349 nan nan nan -2.882001 0.135059 7.083305 -0.860748 -3.339138 10.037651 -1.290238 -0.302344 -1.393564 4.152405 -6.878509 20.045186 11.796798 -8.706380 5.694722 -9.086110 -8.795090 -6.402694 -64.142840 -37.667979 28.666728 145.963842 -61.521443 -125.129514 2.132482 -20.606244 -14.348517 0.421375 6.729148 -6.811797 52.016348 11.918972 6.974755 -156.713718 58.619050 -151.817178 12.493344 24.456311 -39.141935 
-31.596605 154.058609 87.674828 -86.023548 -4.404802 84.875078 19.253259 5.218949 -6.596016 -5.509981 -4.113200 11.622947 -4.027214 4.952599 -12.926520 nan nan nan -20.961413 -13.735122 -20.716143 -0.118572 -17.208236 49.928385 2.889810 -4.930927 -39.177685 nan nan nan -2.737312 -0.023625 7.106229 -0.906190 -3.479226 9.751134 -1.340689 -0.521550 -1.009355 3.951523 -7.172215 20.067849 11.921775 -8.240176 5.903226 -9.433396 -9.080143 -6.278639 -64.480449 -37.587735 28.856638 146.428605 -61.739557 -125.203441 1.744116 -20.510877 -14.621671 0.157102 6.315155 -7.125127 51.465558 12.389383 6.135660 -156.734270 57.895489 -152.072129 12.301433 24.197508 -38.589117 
